<?xml version="1.0" encoding="utf-8"?>
<!-- Generator: Adobe Illustrator 25.3.1, SVG Export Plug-In . SVG Version: 6.00 Build 0)  -->
<svg version="1.1" id="Capa_1" xmlns="http://www.w3.org/2000/svg" xmlns:xlink="http://www.w3.org/1999/xlink" x="0px" y="0px"
	 viewBox="0 0 153 142" style="enable-background:new 0 0 153 142;" xml:space="preserve">
<style type="text/css">
	.st0{clip-path:url(#SVGID_2_);}
	.st1{fill:url(#SVGID_3_);}
	.st2{clip-path:url(#SVGID_5_);}
	.st3{fill:url(#SVGID_6_);}
	.st4{fill:url(#SVGID_7_);}
	.st5{fill:url(#SVGID_8_);}
	.st6{fill:url(#SVGID_9_);}
	.st7{fill:url(#SVGID_10_);}
	.st8{fill:url(#SVGID_11_);}
	.st9{fill:url(#SVGID_12_);}
	.st10{fill:url(#SVGID_13_);}
	.st11{fill:url(#SVGID_14_);}
	.st12{fill:url(#SVGID_15_);}
	.st13{fill:url(#SVGID_16_);}
	.st14{fill:url(#SVGID_17_);}
	.st15{fill:url(#SVGID_18_);}
	.st16{fill:url(#SVGID_19_);}
	.st17{fill:url(#SVGID_20_);}
	.st18{fill:url(#SVGID_21_);}
	.st19{fill:url(#SVGID_22_);}
</style>
<g>
	<g>
		<defs>
			<rect id="SVGID_1_" x="5.6" y="0.7" width="141.7" height="141.3"/>
		</defs>
		<clipPath id="SVGID_2_">
			<use xlink:href="#SVGID_1_"  style="overflow:visible;"/>
		</clipPath>
		<g class="st0">
			
				<linearGradient id="SVGID_3_" gradientUnits="userSpaceOnUse" x1="5.6407" y1="72.6391" x2="147.3654" y2="72.6391" gradientTransform="matrix(1 0 0 -1 0 144)">
				<stop  offset="0" style="stop-color:#8FFF70"/>
				<stop  offset="1" style="stop-color:#8FFFFF"/>
			</linearGradient>
			<path class="st1" d="M78.4,142c-0.8,0-1.6,0-2.4-0.1c-9.1-0.5-17.7-3.8-22.8-8.9l-40-40c-5.1-5.1-7.8-13.3-7.5-22.6
				c0.3-9,3.4-17.4,8.5-22.4l16.2-16.2c0.5-0.5,1.2-0.5,1.7,0c0.5,0.5,0.5,1.2,0,1.7L15.8,49.6C11.2,54.2,8.3,62,8,70.4
				c-0.3,8.5,2.3,16.3,6.8,20.9l40,40c4.7,4.7,12.6,7.8,21.2,8.3c8.7,0.5,16.5-1.9,21-6.4l16.7-16.7c0.5-0.5,1.2-0.5,1.7,0
				c0.5,0.5,0.5,1.2,0,1.7l-16.7,16.7C94.2,139.5,86.8,142,78.4,142z M130.3,102.4c-0.3,0-0.6-0.1-0.9-0.3c-0.5-0.5-0.5-1.2,0-1.7
				l8.1-8.1c4.5-4.5,7.3-11.9,7.4-19.7c0.1-8.1-2.4-15.3-7-19.9L96,10.6C91.4,6,83.8,3.2,75.6,3.1C67.4,3,59.8,5.6,55.4,10
				L44.9,20.5c-0.5,0.5-1.2,0.5-1.7,0c-0.5-0.5-0.5-1.2,0-1.7L53.7,8.4c4.9-4.9,13.1-7.7,21.9-7.6c9,0.1,17,3.1,22.1,8.2l41.9,41.9
				c5.1,5.1,7.9,12.9,7.7,21.7c-0.1,8.5-3.2,16.4-8.1,21.4l-8.1,8.1C130.9,102.2,130.6,102.4,130.3,102.4z"/>
		</g>
	</g>
	<g>
		<defs>
			<rect id="SVGID_4_" x="33.6" y="29.7" width="82.8" height="82.8"/>
		</defs>
		<clipPath id="SVGID_5_">
			<use xlink:href="#SVGID_4_"  style="overflow:visible;"/>
		</clipPath>
		<g class="st2">
			
				<linearGradient id="SVGID_6_" gradientUnits="userSpaceOnUse" x1="33.5882" y1="72.8667" x2="116.3573" y2="72.8667" gradientTransform="matrix(1 0 0 -1 0 144)">
				<stop  offset="0" style="stop-color:#8FFF73"/>
				<stop  offset="1" style="stop-color:#8FFFF9"/>
			</linearGradient>
			<path class="st3" d="M104.2,41.9C96.4,34.1,86,29.7,75,29.7c-11.1,0-21.4,4.3-29.3,12.1c-7.8,7.8-12.1,18.2-12.1,29.3
				s4.3,21.4,12.1,29.3c7.8,7.8,18.2,12.1,29.3,12.1c11.1,0,21.4-4.3,29.3-12.1c7.8-7.8,12.1-18.2,12.1-29.3S112.1,49.7,104.2,41.9z
				 M102.4,98.6c-7.3,7.3-17.1,11.4-27.4,11.4c-10.4,0-20.1-4-27.4-11.4c-7.3-7.3-11.4-17.1-11.4-27.4s4-20.1,11.4-27.4
				c7.3-7.3,17.1-11.4,27.4-11.4c10.4,0,20.1,4,27.4,11.4c7.3,7.3,11.4,17.1,11.4,27.4S109.7,91.2,102.4,98.6z"/>
			
				<linearGradient id="SVGID_7_" gradientUnits="userSpaceOnUse" x1="38.7612" y1="78.687" x2="95.6662" y2="78.687" gradientTransform="matrix(1 0 0 -1 0 144)">
				<stop  offset="0" style="stop-color:#8FFF73"/>
				<stop  offset="1" style="stop-color:#8FFFF9"/>
			</linearGradient>
			<path class="st4" d="M41.3,71.1c0-18.5,15.1-33.6,33.6-33.6c6.7,0,13.1,2,18.7,5.7c0.6,0.4,1.4,0.2,1.8-0.4
				c0.4-0.6,0.2-1.4-0.4-1.8c-6-4-12.9-6.1-20.1-6.1c-9.7,0-18.8,3.8-25.6,10.6c-6.8,6.8-10.6,15.9-10.6,25.6
				c0,8.9,3.3,17.5,9.2,24.1c0.3,0.3,0.6,0.4,1,0.4c0.3,0,0.6-0.1,0.9-0.3c0.5-0.5,0.6-1.3,0.1-1.8C44.4,87.4,41.3,79.4,41.3,71.1z"
				/>
			
				<linearGradient id="SVGID_8_" gradientUnits="userSpaceOnUse" x1="51.6923" y1="65.1074" x2="111.1847" y2="65.1074" gradientTransform="matrix(1 0 0 -1 0 144)">
				<stop  offset="0" style="stop-color:#8FFF73"/>
				<stop  offset="1" style="stop-color:#8FFFF9"/>
			</linearGradient>
			<path class="st5" d="M105.1,51c-0.4-0.6-1.2-0.8-1.8-0.4c-0.6,0.4-0.8,1.2-0.4,1.8c3.7,5.5,5.7,12,5.7,18.7
				c0,18.5-15.1,33.6-33.6,33.6c-7.7,0-15.2-2.7-21.2-7.5c-0.6-0.5-1.4-0.4-1.8,0.2c-0.5,0.6-0.4,1.4,0.2,1.8
				c6.4,5.2,14.5,8.1,22.8,8.1c9.7,0,18.8-3.8,25.6-10.6c6.8-6.8,10.6-15.9,10.6-25.6C111.2,63.9,109.1,57,105.1,51z"/>
			
				<linearGradient id="SVGID_9_" gradientUnits="userSpaceOnUse" x1="96.9574" y1="97.6102" x2="102.1311" y2="97.6102" gradientTransform="matrix(1 0 0 -1 0 144)">
				<stop  offset="0" style="stop-color:#8FFF73"/>
				<stop  offset="1" style="stop-color:#8FFFF9"/>
			</linearGradient>
			<path class="st6" d="M97.4,46.1c0.9,0.8,1.7,1.6,2.5,2.5c0.3,0.3,0.6,0.4,1,0.4c0.3,0,0.6-0.1,0.9-0.3c0.5-0.5,0.6-1.3,0.1-1.8
				c-0.8-0.9-1.7-1.8-2.7-2.7c-0.5-0.5-1.3-0.4-1.8,0.1C96.8,44.8,96.9,45.6,97.4,46.1z"/>
			
				<linearGradient id="SVGID_10_" gradientUnits="userSpaceOnUse" x1="73.6796" y1="100.6721" x2="76.2662" y2="100.6721" gradientTransform="matrix(1 0 0 -1 0 144)">
				<stop  offset="0" style="stop-color:#8FFF73"/>
				<stop  offset="1" style="stop-color:#8FFFF9"/>
			</linearGradient>
			<path class="st7" d="M75,46.6c0.7,0,1.3-0.6,1.3-1.3v-3.9c0-0.7-0.6-1.3-1.3-1.3c-0.7,0-1.3,0.6-1.3,1.3v3.9
				C73.7,46,74.3,46.6,75,46.6z"/>
			
				<linearGradient id="SVGID_11_" gradientUnits="userSpaceOnUse" x1="73.6796" y1="45.0614" x2="76.2662" y2="45.0614" gradientTransform="matrix(1 0 0 -1 0 144)">
				<stop  offset="0" style="stop-color:#8FFF73"/>
				<stop  offset="1" style="stop-color:#8FFFF9"/>
			</linearGradient>
			<path class="st8" d="M73.7,97v3.9c0,0.7,0.6,1.3,1.3,1.3c0.7,0,1.3-0.6,1.3-1.3V97c0-0.7-0.6-1.3-1.3-1.3
				C74.3,95.7,73.7,96.3,73.7,97z"/>
			
				<linearGradient id="SVGID_12_" gradientUnits="userSpaceOnUse" x1="43.9343" y1="72.8667" x2="50.4008" y2="72.8667" gradientTransform="matrix(1 0 0 -1 0 144)">
				<stop  offset="0" style="stop-color:#8FFF73"/>
				<stop  offset="1" style="stop-color:#8FFFF9"/>
			</linearGradient>
			<path class="st9" d="M50.4,71.1c0-0.7-0.6-1.3-1.3-1.3h-3.9c-0.7,0-1.3,0.6-1.3,1.3s0.6,1.3,1.3,1.3h3.9
				C49.8,72.4,50.4,71.8,50.4,71.1z"/>
			
				<linearGradient id="SVGID_13_" gradientUnits="userSpaceOnUse" x1="99.5451" y1="72.8667" x2="106.0111" y2="72.8667" gradientTransform="matrix(1 0 0 -1 0 144)">
				<stop  offset="0" style="stop-color:#8FFF73"/>
				<stop  offset="1" style="stop-color:#8FFFF9"/>
			</linearGradient>
			<path class="st10" d="M99.5,71.1c0,0.7,0.6,1.3,1.3,1.3h3.9c0.7,0,1.3-0.6,1.3-1.3s-0.6-1.3-1.3-1.3h-3.9
				C100.1,69.8,99.5,70.4,99.5,71.1z"/>
			
				<linearGradient id="SVGID_14_" gradientUnits="userSpaceOnUse" x1="58.8069" y1="96.9469" x2="63.3336" y2="96.9469" gradientTransform="matrix(1 0 0 -1 0 144)">
				<stop  offset="0" style="stop-color:#8FFF73"/>
				<stop  offset="1" style="stop-color:#8FFFF9"/>
			</linearGradient>
			<path class="st11" d="M63.2,48.1l-1.9-3.4c-0.4-0.6-1.1-0.8-1.8-0.5c-0.6,0.4-0.8,1.1-0.5,1.8l1.9,3.4c0.2,0.4,0.7,0.6,1.1,0.6
				c0.2,0,0.4-0.1,0.6-0.2C63.3,49.5,63.5,48.7,63.2,48.1z"/>
			
				<linearGradient id="SVGID_15_" gradientUnits="userSpaceOnUse" x1="86.6122" y1="48.7865" x2="91.1392" y2="48.7865" gradientTransform="matrix(1 0 0 -1 0 144)">
				<stop  offset="0" style="stop-color:#8FFF73"/>
				<stop  offset="1" style="stop-color:#8FFFF9"/>
			</linearGradient>
			<path class="st12" d="M89,92.9c-0.4-0.6-1.1-0.8-1.8-0.5c-0.6,0.4-0.8,1.1-0.5,1.8l1.9,3.4c0.2,0.4,0.7,0.6,1.1,0.6
				c0.2,0,0.4-0.1,0.6-0.2c0.6-0.4,0.8-1.1,0.5-1.8L89,92.9z"/>
			
				<linearGradient id="SVGID_16_" gradientUnits="userSpaceOnUse" x1="47.9194" y1="58.964" x2="53.8664" y2="58.964" gradientTransform="matrix(1 0 0 -1 0 144)">
				<stop  offset="0" style="stop-color:#8FFF73"/>
				<stop  offset="1" style="stop-color:#8FFFF9"/>
			</linearGradient>
			<path class="st13" d="M49.2,87.3c0.2,0,0.4-0.1,0.6-0.2l3.4-1.9c0.6-0.4,0.8-1.1,0.5-1.8c-0.4-0.6-1.1-0.8-1.8-0.5l-3.4,1.9
				c-0.6,0.4-0.8,1.1-0.5,1.8C48.3,87.1,48.8,87.3,49.2,87.3z"/>
			
				<linearGradient id="SVGID_17_" gradientUnits="userSpaceOnUse" x1="96.0796" y1="86.7693" x2="102.0266" y2="86.7693" gradientTransform="matrix(1 0 0 -1 0 144)">
				<stop  offset="0" style="stop-color:#8FFF73"/>
				<stop  offset="1" style="stop-color:#8FFFF9"/>
			</linearGradient>
			<path class="st14" d="M97.4,59.5c0.2,0,0.4-0.1,0.6-0.2l3.4-1.9c0.6-0.4,0.8-1.1,0.5-1.8c-0.4-0.6-1.1-0.8-1.8-0.5l-3.4,1.9
				c-0.6,0.4-0.8,1.1-0.5,1.8C96.5,59.3,96.9,59.5,97.4,59.5z"/>
			
				<linearGradient id="SVGID_18_" gradientUnits="userSpaceOnUse" x1="86.6122" y1="96.9469" x2="91.139" y2="96.9469" gradientTransform="matrix(1 0 0 -1 0 144)">
				<stop  offset="0" style="stop-color:#8FFF73"/>
				<stop  offset="1" style="stop-color:#8FFFF9"/>
			</linearGradient>
			<path class="st15" d="M90.5,44.3c-0.6-0.4-1.4-0.1-1.8,0.5l-1.9,3.4c-0.4,0.6-0.1,1.4,0.5,1.8c0.2,0.1,0.4,0.2,0.6,0.2
				c0.4,0,0.9-0.2,1.1-0.6L91,46C91.3,45.4,91.1,44.6,90.5,44.3z"/>
			
				<linearGradient id="SVGID_19_" gradientUnits="userSpaceOnUse" x1="58.8069" y1="48.7866" x2="63.3337" y2="48.7866" gradientTransform="matrix(1 0 0 -1 0 144)">
				<stop  offset="0" style="stop-color:#8FFF73"/>
				<stop  offset="1" style="stop-color:#8FFFF9"/>
			</linearGradient>
			<path class="st16" d="M62.7,92.4c-0.6-0.4-1.4-0.1-1.8,0.5L59,96.2c-0.4,0.6-0.1,1.4,0.5,1.8c0.2,0.1,0.4,0.2,0.6,0.2
				c0.4,0,0.9-0.2,1.1-0.6l1.9-3.4C63.5,93.6,63.3,92.8,62.7,92.4z"/>
			
				<linearGradient id="SVGID_20_" gradientUnits="userSpaceOnUse" x1="96.0796" y1="58.9641" x2="102.0266" y2="58.9641" gradientTransform="matrix(1 0 0 -1 0 144)">
				<stop  offset="0" style="stop-color:#8FFF73"/>
				<stop  offset="1" style="stop-color:#8FFFF9"/>
			</linearGradient>
			<path class="st17" d="M96.7,85.2l3.4,1.9c0.2,0.1,0.4,0.2,0.6,0.2c0.4,0,0.9-0.2,1.1-0.6c0.4-0.6,0.1-1.4-0.5-1.8L98,82.9
				c-0.6-0.4-1.4-0.1-1.8,0.5C95.9,84,96.1,84.8,96.7,85.2z"/>
			
				<linearGradient id="SVGID_21_" gradientUnits="userSpaceOnUse" x1="47.9192" y1="86.7695" x2="53.8663" y2="86.7695" gradientTransform="matrix(1 0 0 -1 0 144)">
				<stop  offset="0" style="stop-color:#8FFF73"/>
				<stop  offset="1" style="stop-color:#8FFFF9"/>
			</linearGradient>
			<path class="st18" d="M53.2,57.1l-3.4-1.9c-0.6-0.4-1.4-0.1-1.8,0.5c-0.4,0.6-0.1,1.4,0.5,1.8l3.4,1.9c0.2,0.1,0.4,0.2,0.6,0.2
				c0.4,0,0.9-0.2,1.1-0.6C54,58.2,53.8,57.4,53.2,57.1z"/>
			
				<linearGradient id="SVGID_22_" gradientUnits="userSpaceOnUse" x1="71.0931" y1="75.4168" x2="85.2684" y2="75.4168" gradientTransform="matrix(1 0 0 -1 0 144)">
				<stop  offset="0" style="stop-color:#8FFF73"/>
				<stop  offset="1" style="stop-color:#8FFFF9"/>
			</linearGradient>
			<path class="st19" d="M84,88c0.2,0,0.4-0.1,0.6-0.2c0.6-0.4,0.8-1.1,0.5-1.8l-7.2-12.4c0.6-0.7,0.9-1.6,0.9-2.5
				c0-1.7-1.1-3.1-2.6-3.7v-17c0-0.7-0.6-1.3-1.3-1.3c-0.7,0-1.3,0.6-1.3,1.3v17c-1.5,0.5-2.6,2-2.6,3.7c0,2.1,1.7,3.9,3.9,3.9
				c0.2,0,0.5,0,0.7-0.1l7.2,12.4C83.1,87.8,83.5,88,84,88z M73.7,71.1c0-0.7,0.6-1.3,1.3-1.3c0.7,0,1.3,0.6,1.3,1.3
				s-0.6,1.3-1.3,1.3C74.3,72.4,73.7,71.8,73.7,71.1z"/>
		</g>
	</g>
</g>
</svg>
