<?xml version="1.0" encoding="utf-8"?>
<!-- Generator: Adobe Illustrator 25.3.1, SVG Export Plug-In . SVG Version: 6.00 Build 0)  -->
<svg version="1.1" id="Capa_1" xmlns="http://www.w3.org/2000/svg" xmlns:xlink="http://www.w3.org/1999/xlink" x="0px" y="0px"
	 viewBox="0 0 154 142" style="enable-background:new 0 0 154 142;" xml:space="preserve">
<style type="text/css">
	.st0{clip-path:url(#SVGID_2_);}
	.st1{fill:url(#SVGID_3_);}
	.st2{clip-path:url(#SVGID_5_);}
	.st3{fill:url(#SVGID_6_);}
</style>
<g>
	<g>
		<defs>
			<rect id="SVGID_1_" x="5.8" width="142.2" height="141.8"/>
		</defs>
		<clipPath id="SVGID_2_">
			<use xlink:href="#SVGID_1_"  style="overflow:visible;"/>
		</clipPath>
		<g class="st0">
			
				<linearGradient id="SVGID_3_" gradientUnits="userSpaceOnUse" x1="5.7979" y1="73.1019" x2="148.0499" y2="73.1019" gradientTransform="matrix(1 0 0 -1 0 144)">
				<stop  offset="0" style="stop-color:#8FFF70"/>
				<stop  offset="1" style="stop-color:#8FFFFF"/>
			</linearGradient>
			<path class="st1" d="M78.8,141.8c-0.8,0-1.6,0-2.4-0.1c-9.2-0.5-17.7-3.9-22.8-9L13.4,92.6c-5.1-5.1-7.8-13.4-7.6-22.7
				c0.3-9.1,3.5-17.5,8.5-22.5l16.3-16.3c0.5-0.5,1.2-0.5,1.7,0c0.5,0.5,0.5,1.2,0,1.7L16,49c-4.6,4.6-7.5,12.4-7.8,20.9
				c-0.3,8.6,2.3,16.4,6.8,20.9l40.2,40.2c4.7,4.7,12.7,7.8,21.3,8.3c8.7,0.5,16.6-1.9,21-6.4l16.8-16.8c0.5-0.5,1.2-0.5,1.7,0
				c0.5,0.5,0.5,1.2,0,1.7l-16.8,16.8C94.7,139.3,87.3,141.8,78.8,141.8z M130.9,102c-0.3,0-0.6-0.1-0.9-0.3c-0.5-0.5-0.5-1.2,0-1.7
				l8.1-8.1c4.5-4.5,7.3-11.9,7.4-19.8c0.1-8.1-2.4-15.4-7-20L96.5,9.9C91.9,5.3,84.2,2.5,76,2.4c-8.2-0.1-15.8,2.5-20.3,6.9
				L45.2,19.9c-0.5,0.5-1.2,0.5-1.7,0c-0.5-0.5-0.5-1.2,0-1.7L54,7.7C58.9,2.7,67.1-0.1,76,0c9,0.1,17.1,3.1,22.2,8.2l42.1,42.1
				c5.1,5.1,7.9,13,7.8,21.7c-0.1,8.5-3.2,16.5-8.1,21.5l-8.1,8.1C131.6,101.9,131.3,102,130.9,102z"/>
		</g>
	</g>
	<g>
		<defs>
			<rect id="SVGID_4_" x="41.4" y="33.4" width="72.3" height="72.3"/>
		</defs>
		<clipPath id="SVGID_5_">
			<use xlink:href="#SVGID_4_"  style="overflow:visible;"/>
		</clipPath>
		<g class="st2">
			
				<linearGradient id="SVGID_6_" gradientUnits="userSpaceOnUse" x1="41.4018" y1="74.4093" x2="113.6897" y2="74.4093" gradientTransform="matrix(1 0 0 -1 0 144)">
				<stop  offset="0" style="stop-color:#8FFF73"/>
				<stop  offset="1" style="stop-color:#8FFFF9"/>
			</linearGradient>
			<path class="st3" d="M111.2,63.6H107v-1.4c0-1.4-1.1-2.5-2.5-2.5h-3.1c-1.4,0-2.5,1.1-2.5,2.5v1.4h-3.2l-2.4-2.5
				c-0.6-0.6-0.9-1.4-0.9-2.2v-1.8h9.1c1.4,0,2.5-1.1,2.5-2.5v-10c0-0.6-0.5-1.1-1.1-1.1s-1.1,0.5-1.1,1.1v5.8H87.5v-1.1
				c0-3.7-3-6.7-6.7-6.7h-5.2v-6.7c0-0.2,0.2-0.4,0.4-0.4h25.7c0.2,0,0.4,0.2,0.4,0.4v3.8c0,0.6,0.5,1.1,1.1,1.1s1.1-0.5,1.1-1.1
				v-3.8c0-1.4-1.1-2.5-2.5-2.5H76c-1.4,0-2.5,1.1-2.5,2.5v6.7H64c-3.7,0-6.7,3-6.7,6.7v3.3c0,0.6,0.5,1.1,1.1,1.1s1.1-0.5,1.1-1.1
				v-3.3c0-2.5,2.1-4.6,4.6-4.6h16.8c2.5,0,4.6,2.1,4.6,4.6v24.2c0,1-0.8,1.8-1.8,1.8H76v-4.8c0-1.4-1.1-2.5-2.5-2.5h-2.3
				c-1.4,0-2.5,1.1-2.5,2.5v4.8h-7.6c-1,0-1.8-0.8-1.8-1.8V57.7c0-0.6-0.5-1.1-1.1-1.1s-1.1,0.5-1.1,1.1v5.9h-2.4v-7.4
				c0-0.7-0.6-1.3-1.3-1.3h-0.2v-3.4c0-1.8-1.5-3.3-3.3-3.3c-1.8,0-3.3,1.5-3.3,3.3v3.4h-0.2c-0.7,0-1.3,0.6-1.3,1.3v7.4h-1.1
				c-1.4,0-2.5,1.1-2.5,2.5v3.2c0,1.4,1.1,2.5,2.5,2.5H45V104c0,1,0.8,1.8,1.8,1.8h4.1c1,0,1.8-0.8,1.8-1.8V88.9h4.6v1.2
				c0,1,0.8,1.8,1.8,1.8h9.7v0.8l-9,10.1c-0.5,0.5-0.6,1.3-0.3,1.9c0.3,0.6,0.9,1,1.6,1h3.5c0.5,0,1-0.2,1.3-0.6l2.8-3.2v1.4
				c0,1.4,1.1,2.5,2.5,2.5h2.3c1.4,0,2.5-1.1,2.5-2.5v-1.4l2.8,3.2c0.3,0.4,0.8,0.6,1.3,0.6h3.5c0.7,0,1.3-0.4,1.6-1
				c0.3-0.6,0.2-1.4-0.3-1.9l-9-10.1v-0.8h9.7c1,0,1.8-0.8,1.8-1.8v-1.2h15V104c0,1,0.8,1.8,1.8,1.8h4.1c1,0,1.8-0.8,1.8-1.8V82.9
				c0-0.6-0.5-1.1-1.1-1.1s-1.1,0.5-1.1,1.1v20.8h-3.4V71.7h3.4v6c0,0.6,0.5,1.1,1.1,1.1s1.1-0.5,1.1-1.1v-6h1.1
				c1.4,0,2.5-1.1,2.5-2.5v-3.2C113.7,64.7,112.6,63.6,111.2,63.6z M101.1,62.3c0-0.2,0.2-0.4,0.4-0.4h3.1c0.2,0,0.4,0.2,0.4,0.4
				v1.4h-3.8V62.3z M91.9,62.5l1,1.1h-5.4v-6.5h2.9v1.8C90.4,60.2,90.9,61.5,91.9,62.5z M102,52.5v2.1c0,0.2-0.2,0.4-0.4,0.4H87.5
				v-2.5H102z M70.8,70.5c0-0.2,0.2-0.4,0.4-0.4h2.3c0.2,0,0.4,0.2,0.4,0.4v11h-3V70.5z M47.1,57h5.6v2h-5.6V57z M48.7,51.5
				c0-0.7,0.6-1.2,1.2-1.2c0.7,0,1.2,0.6,1.2,1.2v3.4h-2.5V51.5z M47.1,61.1h5.6v2.5h-5.6V61.1z M43.5,69.3v-3.2
				c0-0.2,0.2-0.4,0.4-0.4h13.4v3.9H43.9C43.7,69.6,43.5,69.5,43.5,69.3z M50.5,103.6h-3.4V71.7h3.4V103.6z M52.6,86.8V71.7h4.6v1.8
				c0,2.1,1.7,3.9,3.9,3.9h7.6v4.1h-6.6c-0.9,0-1.9,0.3-2.6,1L57.8,84c-0.4,0.3-0.6,0.8-0.6,1.3v1.5L52.6,86.8L52.6,86.8z
				 M64.4,103.6h-2.5l6.9-7.8v2.8L64.4,103.6z M82.9,103.6h-2.5l-4.3-5v-2.8L82.9,103.6z M73.9,103.3c0,0.2-0.2,0.4-0.4,0.4h-2.3
				c-0.2,0-0.4-0.2-0.4-0.4V91.9h3V103.3z M85.4,89.8H75c0,0,0,0,0,0c0,0,0,0,0,0h-5.2c0,0,0,0,0,0c0,0,0,0,0,0H59.4v-4.3l1.6-1.4
				c0.3-0.3,0.7-0.4,1.2-0.4h20.5c0.4,0,0.8,0.2,1.2,0.4l1.6,1.4L85.4,89.8L85.4,89.8z M102.5,86.8h-15v-1.5c0-0.5-0.2-1-0.6-1.3
				l-1.7-1.5c-0.7-0.6-1.6-1-2.6-1H76v-4.1h7.6c2.1,0,3.9-1.7,3.9-3.9v-1.8h15V86.8z M111.2,65.8c0.2,0,0.4,0.2,0.4,0.4v3.2
				c0,0.2-0.2,0.4-0.4,0.4H87.5v-3.9H111.2z"/>
		</g>
	</g>
</g>
</svg>
