<?xml version="1.0" encoding="utf-8"?>
<!-- Generator: Adobe Illustrator 25.3.1, SVG Export Plug-In . SVG Version: 6.00 Build 0)  -->
<svg version="1.1" id="Capa_1" xmlns="http://www.w3.org/2000/svg" xmlns:xlink="http://www.w3.org/1999/xlink" x="0px" y="0px"
	 viewBox="0 0 153 142" style="enable-background:new 0 0 153 142;" xml:space="preserve">
<style type="text/css">
	.st0{clip-path:url(#SVGID_2_);}
	.st1{fill:url(#SVGID_3_);}
	.st2{fill:url(#SVGID_4_);}
	.st3{fill:url(#SVGID_5_);}
	.st4{fill:url(#SVGID_6_);}
	.st5{fill:url(#SVGID_7_);}
	.st6{fill:url(#SVGID_8_);}
	.st7{fill:url(#SVGID_9_);}
	.st8{fill:url(#SVGID_10_);}
	.st9{fill:url(#SVGID_11_);}
	.st10{fill:url(#SVGID_12_);}
	.st11{fill:url(#SVGID_13_);}
	.st12{fill:url(#SVGID_14_);}
	.st13{fill:url(#SVGID_15_);}
	.st14{fill:url(#SVGID_16_);}
	.st15{fill:url(#SVGID_17_);}
</style>
<g>
	<g>
		<defs>
			<rect id="SVGID_1_" x="5.3" width="142.3" height="141.9"/>
		</defs>
		<clipPath id="SVGID_2_">
			<use xlink:href="#SVGID_1_"  style="overflow:visible;"/>
		</clipPath>
		<g class="st0">
			
				<linearGradient id="SVGID_3_" gradientUnits="userSpaceOnUse" x1="5.3418" y1="73.0666" x2="147.6643" y2="73.0666" gradientTransform="matrix(1 0 0 -1 0 144)">
				<stop  offset="0" style="stop-color:#8FFF70"/>
				<stop  offset="1" style="stop-color:#8FFFFF"/>
			</linearGradient>
			<path class="st1" d="M78.4,141.9c-0.8,0-1.6,0-2.4-0.1c-9.2-0.5-17.7-3.9-22.9-9L12.9,92.6c-5.1-5.1-7.8-13.4-7.6-22.7
				c0.3-9.1,3.5-17.5,8.5-22.5l16.3-16.3c0.5-0.5,1.2-0.5,1.7,0c0.5,0.5,0.5,1.2,0,1.7L15.6,49.1C10.9,53.7,8,61.5,7.8,70
				c-0.3,8.6,2.3,16.4,6.8,20.9l40.2,40.2c4.7,4.7,12.7,7.8,21.3,8.3c8.7,0.5,16.6-1.9,21-6.4l16.8-16.8c0.5-0.5,1.2-0.5,1.7,0
				c0.5,0.5,0.5,1.2,0,1.7l-16.8,16.8C94.3,139.3,86.9,141.9,78.4,141.9z M130.6,102.1c-0.3,0-0.6-0.1-0.9-0.3
				c-0.5-0.5-0.5-1.2,0-1.7l8.1-8.1c4.5-4.5,7.3-11.9,7.4-19.8c0.1-8.1-2.4-15.4-7-20L96.1,9.9c-4.6-4.6-12.3-7.4-20.5-7.5
				c-8.2-0.1-15.8,2.5-20.3,6.9L44.8,19.9c-0.5,0.5-1.2,0.5-1.7,0c-0.5-0.5-0.5-1.2,0-1.7L53.6,7.7c4.9-4.9,13.1-7.8,22-7.7
				c9,0.1,17.1,3.1,22.2,8.2l42.1,42.1c5.1,5.1,7.9,13,7.8,21.8c-0.1,8.5-3.2,16.5-8.1,21.5l-8.1,8.1
				C131.2,101.9,130.9,102.1,130.6,102.1z"/>
			
				<linearGradient id="SVGID_4_" gradientUnits="userSpaceOnUse" x1="37.2986" y1="73.2577" x2="109.1504" y2="73.2577" gradientTransform="matrix(1 0 0 -1 0 144)">
				<stop  offset="0" style="stop-color:#8FFF73"/>
				<stop  offset="1" style="stop-color:#8FFFF9"/>
			</linearGradient>
			<path class="st2" d="M103.1,79.5c0.1-0.4,0.1-0.8,0-1.2v0l-1-3.4c-0.8-2.7-2.6-5.1-5-6.8c0,0,0,0,0,0l-1.4-0.9
				c-1.6-1.1-3.7,0.1-3.7,2v1.5c0,1.2,0.2,2.3,0.6,3.3c-1.6,0.5-2.9,1.7-3.4,3.2c-2.8,1-5.3,2.8-7.1,5.2c-1.9,2.5-2.9,5.5-3,8.7
				c-3,1.5-6,2.6-8.9,3.2c2.3-5.4,2.4-11.5-1.6-15.7c1.7-1.1,3.3-2.2,4.8-3.3c2.2-1.6,4.2-3.4,6-5.2c7-7,11-14.8,14.5-22.2
				c0.8-1.8,1.2-3,2.8-3.8c1-0.5,1.7-1.6,1.7-2.8v-4.4h2.1v5.2c0,1,0.4,1.9,1.2,2.5c0.7,0.5,1.2,1.3,1.5,2.2
				c2.3,7.3,1.2,15.1-2.1,22c-0.3,0.7,0.2,1.5,0.9,1.5c0.4,0,0.8-0.2,1-0.6l0,0c1.1-2.3,1.9-4.6,2.5-6.9c1.5-5.7,1.3-11.6-0.3-16.6
				c-0.4-1.3-1.1-2.4-2.2-3.2c-0.2-0.2-0.4-0.5-0.4-0.8v-5.2c0-1.2-0.9-2.1-2.1-2.1h-2.1c-1.2,0-2.1,0.9-2.1,2.1v4.4
				c0,0.4-0.2,0.8-0.5,0.9c-2.2,1.1-2.8,2.8-3.7,4.8c-2.8,5.9-6.7,14.3-14,21.6c-3.2,3.2-6.8,6-11,8.6c-1.8-1.3-4-2.1-6.5-2.2
				c-1.4,0-2.7,0.1-4,0.6c2-3.9,4.9-6.6,8.7-8c1.2,1.2,2.5-0.4,1.6-1.4L66,65.7c-0.3-0.3-0.7-0.4-1.1-0.3c-4,1.3-7.3,4-9.6,7.7
				c-0.4-2.8-1.4-5.5-4.1-7.3l-3.5-2.2c-0.8-0.5-1.8-0.5-2.5,0.1c-0.7,0.6-1,1.5-0.8,2.4l1,3.4c0.7,2.1,1.9,4.1,3.5,5.6
				c-4.1,0-8,2.1-10.2,6c-1.8,3.3-2,7.3-0.6,11.5c1,3.2,2.9,6.2,5.3,8.6c2.5,2.5,5.3,3.9,8,4.1c0.5,0,1.1,0,1.6,0
				c0.9-0.1,1.9-0.1,2.8,0c0.3,0,0.7,0.1,1,0.1c0.2,0,0.4,0,0.6,0c2.7-0.2,5.5-1.6,8-4.1c1.3-1.3,2.4-2.7,3.3-4.3
				c3.4-0.5,6.8-1.6,10.2-3.3c1,7.4,7.3,13.2,14.9,13.2c8.3,0,15.1-6.8,15.1-15.1C109.2,86.8,106.9,82.3,103.1,79.5z M47.5,68.8
				l-1-3.4c0,0,0,0,0-0.1c0.1-0.1-0.2-0.2,3.6,2.2c2.6,1.7,3.2,4.6,3.3,8.1l-1.8-1.2C49.7,73.1,48.2,71.1,47.5,68.8z M68.8,91.9
				c-1.8,5.6-6.7,11-11.4,11.2c-0.4,0-0.9,0-1.3,0c-0.5-0.1-1.1-0.1-1.6-0.1c-0.5,0-1.1,0-1.6,0.1c-0.4,0-0.8,0.1-1.3,0
				c-2.1-0.1-4.5-1.4-6.6-3.5c-2.1-2.1-3.8-4.9-4.8-7.7c-1.2-3.7-1-7.1,0.5-9.8c1.6-3,4.6-4.7,8.1-4.9c1.6-0.1,3.2,0.3,4.8,1.1
				l0.4,0.3c0.4,0.3,1,0.2,1.3-0.2c1.6-0.9,3.3-1.3,5-1.2C66.8,77.4,71.6,83.5,68.8,91.9z M94.1,69.3c0-0.2,0.3-0.4,0.5-0.3
				c1.3,0.8,2.9,1.7,4.3,4c0,0.3,0.2,0.6,0.4,0.7c0.3,0.6,0.6,1.2,0.8,1.8l1,3.4c0,0,0,0,0,0.1c-0.1,0-0.1,0-0.1,0l-3.5-2.2
				C93.8,74.5,94.1,71.2,94.1,69.3z M94.1,104.6c-7.1,0-13-5.8-13-13c0-5.2,3.1-9.8,7.7-11.9c0.1,0.8,0.3,1.5,0.7,2.2
				c0.2,0.3,0.5,0.5,0.9,0.5c0.2,0,0.4,0,0.5-0.2c0.5-0.3,0.7-0.9,0.4-1.4C91,80,90.8,79.2,91,78.4c0.3-1.1,1-1.9,2-2.2v2.9
				c0,0.6,0.4,1.1,1,1.1c0.6,0,1.1-0.5,1.1-1.1v-1.4c0.7,0.6,1.1,0.8,2.1,1.5c0,0.6-0.2,1.1-0.4,1.6c-0.3,0.5-0.1,1.1,0.4,1.4
				c0.2,0.1,0.4,0.2,0.5,0.2c0.4,0,0.7-0.2,0.9-0.5c0.3-0.4,0.5-0.9,0.6-1.4l0.6,0.4c0.4,0.2,0.8,0.3,1.2,0.3c0.2,0,0.5,0,0.7-0.1
				c3.4,2.4,5.4,6.3,5.4,10.5C107,98.7,101.2,104.6,94.1,104.6z"/>
			
				<linearGradient id="SVGID_5_" gradientUnits="userSpaceOnUse" x1="49.1383" y1="87.5923" x2="65.2562" y2="87.5923" gradientTransform="matrix(1 0 0 -1 0 144)">
				<stop  offset="0" style="stop-color:#8FFF73"/>
				<stop  offset="1" style="stop-color:#8FFFF9"/>
			</linearGradient>
			<path class="st3" d="M57.2,64.5c4.4,0,8.1-3.6,8.1-8.1c0-4.5-3.6-8.1-8.1-8.1c-4.4,0-8.1,3.6-8.1,8.1
				C49.1,60.9,52.8,64.5,57.2,64.5z M57.2,50.4c3.3,0,6,2.7,6,6c0,3.3-2.7,6-6,6c-3.3,0-6-2.7-6-6C51.2,53.1,53.9,50.4,57.2,50.4z"
				/>
			
				<linearGradient id="SVGID_6_" gradientUnits="userSpaceOnUse" x1="54.7775" y1="90.05" x2="58.9816" y2="90.05" gradientTransform="matrix(1 0 0 -1 0 144)">
				<stop  offset="0" style="stop-color:#8FFF73"/>
				<stop  offset="1" style="stop-color:#8FFFF9"/>
			</linearGradient>
			<path class="st4" d="M55.1,55.7c0.2,0.2,0.5,0.3,0.7,0.3c0.3,0,0.5-0.1,0.7-0.3l0.3-0.3l0.3,0.3c0.2,0.2,0.5,0.3,0.7,0.3
				c0.3,0,0.5-0.1,0.7-0.3c0.4-0.4,0.4-1.1,0-1.5L58.4,54l0.3-0.3c0.4-0.4,0.4-1.1,0-1.5c-0.4-0.4-1.1-0.4-1.5,0l-0.3,0.3l-0.3-0.3
				c-0.4-0.4-1.1-0.4-1.5,0c-0.4,0.4-0.4,1.1,0,1.5l0.3,0.3l-0.3,0.3C54.7,54.7,54.7,55.3,55.1,55.7z"/>
			
				<linearGradient id="SVGID_7_" gradientUnits="userSpaceOnUse" x1="63.473" y1="101.5309" x2="78.747" y2="101.5309" gradientTransform="matrix(1 0 0 -1 0 144)">
				<stop  offset="0" style="stop-color:#8FFF73"/>
				<stop  offset="1" style="stop-color:#8FFFF9"/>
			</linearGradient>
			<path class="st5" d="M76.4,46.6c1.8-1.8,2.2-4.2,1.4-6.4l0.3-0.1c0.5-0.2,0.8-0.8,0.6-1.4c-0.2-0.5-0.8-0.8-1.4-0.6l-0.5,0.2
				c0,0,0,0,0,0l0.4-0.4c0.4-0.4,0.4-1.1,0-1.5c-0.4-0.4-1.1-0.4-1.5,0l-0.4,0.4c0,0,0,0,0,0l0.2-0.5c0.2-0.5,0-1.2-0.6-1.4
				c-0.5-0.2-1.2,0-1.4,0.6l-0.1,0.3c-2.2-0.8-4.7-0.3-6.4,1.4c-2.5,2.5-5,8.9-2.3,11.7C67.4,51.7,73.9,49.1,76.4,46.6z M65.9,43.4
				c0.5-1.8,1.5-3.7,2.5-4.7c1.8-1.8,4.4-1.5,6.1,0.3c1.9,1.9,2,4.5,0.3,6.2c-1,1-2.9,2-4.6,2.5c-1.9,0.5-3.4,0.4-4.1-0.2
				C65.5,46.8,65.4,45.2,65.9,43.4z"/>
			
				<linearGradient id="SVGID_8_" gradientUnits="userSpaceOnUse" x1="69.8014" y1="101.2741" x2="71.9035" y2="101.2741" gradientTransform="matrix(1 0 0 -1 0 144)">
				<stop  offset="0" style="stop-color:#8FFF73"/>
				<stop  offset="1" style="stop-color:#8FFFF9"/>
			</linearGradient>
			<path class="st6" d="M71.6,43.5c0.4-0.4,0.4-1.1,0-1.5c-0.4-0.4-1.1-0.4-1.5,0c-0.4,0.4-0.4,1.1,0,1.5
				C70.5,43.9,71.2,43.9,71.6,43.5z"/>
			
				<linearGradient id="SVGID_9_" gradientUnits="userSpaceOnUse" x1="66.828" y1="98.2953" x2="68.9307" y2="98.2953" gradientTransform="matrix(1 0 0 -1 0 144)">
				<stop  offset="0" style="stop-color:#8FFF73"/>
				<stop  offset="1" style="stop-color:#8FFFF9"/>
			</linearGradient>
			<path class="st7" d="M68.6,46.4c0.4-0.4,0.4-1.1,0-1.5c-0.4-0.4-1.1-0.4-1.5,0c-0.4,0.4-0.4,1.1,0,1.5
				C67.5,46.9,68.2,46.9,68.6,46.4z"/>
			
				<linearGradient id="SVGID_10_" gradientUnits="userSpaceOnUse" x1="66.828" y1="101.2741" x2="68.9307" y2="101.2741" gradientTransform="matrix(1 0 0 -1 0 144)">
				<stop  offset="0" style="stop-color:#8FFF73"/>
				<stop  offset="1" style="stop-color:#8FFFF9"/>
			</linearGradient>
			<path class="st8" d="M68.6,43.5c0.4-0.4,0.4-1.1,0-1.5c-0.4-0.4-1.1-0.4-1.5,0c-0.4,0.4-0.4,1.1,0,1.5
				C67.5,43.9,68.2,43.9,68.6,43.5z"/>
			
				<linearGradient id="SVGID_11_" gradientUnits="userSpaceOnUse" x1="69.8014" y1="98.2953" x2="71.9035" y2="98.2953" gradientTransform="matrix(1 0 0 -1 0 144)">
				<stop  offset="0" style="stop-color:#8FFF73"/>
				<stop  offset="1" style="stop-color:#8FFFF9"/>
			</linearGradient>
			<path class="st9" d="M71.6,46.4c0.4-0.4,0.4-1.1,0-1.5c-0.4-0.4-1.1-0.4-1.5,0c-0.4,0.4-0.4,1.1,0,1.5
				C70.5,46.9,71.2,46.9,71.6,46.4z"/>
			
				<linearGradient id="SVGID_12_" gradientUnits="userSpaceOnUse" x1="72.7747" y1="101.2741" x2="74.8766" y2="101.2741" gradientTransform="matrix(1 0 0 -1 0 144)">
				<stop  offset="0" style="stop-color:#8FFF73"/>
				<stop  offset="1" style="stop-color:#8FFFF9"/>
			</linearGradient>
			<path class="st10" d="M74.6,43.5c0.4-0.4,0.4-1.1,0-1.5c-0.4-0.4-1.1-0.4-1.5,0c-0.4,0.4-0.4,1.1,0,1.5
				C73.5,43.9,74.2,43.9,74.6,43.5z"/>
			
				<linearGradient id="SVGID_13_" gradientUnits="userSpaceOnUse" x1="69.8014" y1="104.253" x2="71.9035" y2="104.253" gradientTransform="matrix(1 0 0 -1 0 144)">
				<stop  offset="0" style="stop-color:#8FFF73"/>
				<stop  offset="1" style="stop-color:#8FFFF9"/>
			</linearGradient>
			<path class="st11" d="M71.6,40.5c0.4-0.4,0.4-1.1,0-1.5c-0.4-0.4-1.1-0.4-1.5,0c-0.4,0.4-0.4,1.1,0,1.5
				C70.5,40.9,71.2,40.9,71.6,40.5z"/>
			
				<linearGradient id="SVGID_14_" gradientUnits="userSpaceOnUse" x1="68.5627" y1="87.3245" x2="84.4836" y2="87.3245" gradientTransform="matrix(1 0 0 -1 0 144)">
				<stop  offset="0" style="stop-color:#8FFF73"/>
				<stop  offset="1" style="stop-color:#8FFFF9"/>
			</linearGradient>
			<path class="st12" d="M76.3,49.5c-0.4,0.2-0.8,0.6-1,1c-1.2-0.6-2.6-0.4-3.7,0.6c-1,1-1.2,2.5-0.6,3.7c-0.6,0.4-1.1,1.1-1.3,1.8
				c-0.2,0.8-0.1,1.5,0.2,2.2c-0.7,0.5-1.2,1.2-1.4,2.1c-0.3,1.6,0.8,3.2,2.4,3.6c1.3,0.3,2.7-0.3,3.4-1.3c0.9,0.5,2.1,0.5,3-0.1
				c0.4-0.2,0.8-0.6,1-1c1.1,0.6,2.6,0.4,3.7-0.6c1-1,1.2-2.5,0.6-3.7c0.7-0.4,1.2-1.1,1.3-1.9c0.2-0.7,0.1-1.4-0.2-2
				c0.5-0.2,0.8-0.8,0.6-1.3c-0.2-0.5-0.8-0.8-1.3-0.6l-0.6,0.2l0.4-0.4c0.4-0.4,0.4-1.1,0-1.5c-0.4-0.4-1.1-0.4-1.5,0L81,50.7
				l0.2-0.6c0.2-0.5-0.1-1.1-0.6-1.3c-0.5-0.2-1.1,0.1-1.3,0.6C78.3,49,77.3,49,76.3,49.5z M79,52.5c0,0.1,0,0.2,0,0.2l-0.4,0.4
				c-1,1,0.4,2.5,1.6,1.4c0.4-0.4,0.8-0.4,1.1-0.3c1,0.3,0.9,1.8-0.1,2c-1,0.2-1.4,1.5-0.6,2.3c0.2,0.2,0.3,0.5,0.3,0.8
				c0,0.9-1.2,1.4-1.8,0.7c-0.7-0.8-2-0.4-2.3,0.6c-0.2,0.8-1.2,1.1-1.8,0.5c-0.7-0.8-2-0.4-2.3,0.6c-0.1,0.5-0.7,0.9-1.3,0.8
				c-0.9-0.2-1.1-1.4-0.3-1.9c0.4-0.3,0.8-0.1,1-0.1c1.3,0.3,2.6-0.3,3.2-1.4c0.1,0.1,0.2,0.1,0.3,0.1c2.2,0.9,4.6-1,3.4-2.2
				c-0.4-0.4-1.1-0.4-1.5,0c-0.6,0.6-1.7,0.2-1.8-0.6c-0.1-1.7-2.2-1.4-2.1-0.1c0,0.9,0.2,1.4-0.3,1.9c-0.3,0.2-0.6,0.3-0.8,0.2
				c-0.2,0-1-0.5-0.8-1.3c0.1-0.4,0.4-0.7,0.8-0.8c1-0.2,1.4-1.5,0.6-2.3c-0.2-0.2-0.3-0.5-0.3-0.8c0-0.9,1.2-1.4,1.8-0.7
				c0.7,0.8,2,0.4,2.3-0.6c0.1-0.3,0.2-0.5,0.5-0.7C78.2,50.9,79.2,51.6,79,52.5z"/>
			
				<linearGradient id="SVGID_15_" gradientUnits="userSpaceOnUse" x1="86.5122" y1="59.435" x2="88.6168" y2="59.435" gradientTransform="matrix(1 0 0 -1 0 144)">
				<stop  offset="0" style="stop-color:#8FFF73"/>
				<stop  offset="1" style="stop-color:#8FFFF9"/>
			</linearGradient>
			<path class="st13" d="M88.6,84.6c0,0.6-0.5,1.1-1.1,1.1c-0.6,0-1.1-0.5-1.1-1.1c0-0.6,0.5-1.1,1.1-1.1
				C88.1,83.5,88.6,84,88.6,84.6z"/>
			
				<linearGradient id="SVGID_16_" gradientUnits="userSpaceOnUse" x1="89.3184" y1="55.5056" x2="91.4235" y2="55.5056" gradientTransform="matrix(1 0 0 -1 0 144)">
				<stop  offset="0" style="stop-color:#8FFF73"/>
				<stop  offset="1" style="stop-color:#8FFFF9"/>
			</linearGradient>
			<path class="st14" d="M91.4,88.5c0,0.6-0.5,1.1-1.1,1.1c-0.6,0-1.1-0.5-1.1-1.1c0-0.6,0.5-1.1,1.1-1.1
				C91,87.4,91.4,87.9,91.4,88.5z"/>
			
				<linearGradient id="SVGID_17_" gradientUnits="userSpaceOnUse" x1="83.7047" y1="52.4182" x2="85.8096" y2="52.4182" gradientTransform="matrix(1 0 0 -1 0 144)">
				<stop  offset="0" style="stop-color:#8FFF73"/>
				<stop  offset="1" style="stop-color:#8FFFF9"/>
			</linearGradient>
			<path class="st15" d="M85.8,91.6c0,0.6-0.5,1.1-1.1,1.1c-0.6,0-1.1-0.5-1.1-1.1c0-0.6,0.5-1.1,1.1-1.1
				C85.3,90.5,85.8,91,85.8,91.6z"/>
		</g>
	</g>
</g>
</svg>
