<?xml version="1.0" encoding="utf-8"?>
<!-- Generator: Adobe Illustrator 25.3.1, SVG Export Plug-In . SVG Version: 6.00 Build 0)  -->
<svg version="1.1" id="Capa_1" xmlns="http://www.w3.org/2000/svg" xmlns:xlink="http://www.w3.org/1999/xlink" x="0px" y="0px"
	 viewBox="0 0 153 142" style="enable-background:new 0 0 153 142;" xml:space="preserve">
<style type="text/css">
	.st0{clip-path:url(#SVGID_2_);}
	.st1{fill:url(#SVGID_3_);}
	.st2{fill:url(#SVGID_4_);}
	.st3{fill:url(#SVGID_5_);}
	.st4{fill:url(#SVGID_6_);}
	.st5{fill:url(#SVGID_7_);}
	.st6{fill:url(#SVGID_8_);}
</style>
<g>
	<g>
		<defs>
			<rect id="SVGID_1_" x="5.5" width="142.4" height="142"/>
		</defs>
		<clipPath id="SVGID_2_">
			<use xlink:href="#SVGID_1_"  style="overflow:visible;"/>
		</clipPath>
		<g class="st0">
			
				<linearGradient id="SVGID_3_" gradientUnits="userSpaceOnUse" x1="5.5387" y1="73.0018" x2="147.9913" y2="73.0018" gradientTransform="matrix(1 0 0 -1 0 144)">
				<stop  offset="0" style="stop-color:#8FFF70"/>
				<stop  offset="1" style="stop-color:#8FFFFF"/>
			</linearGradient>
			<path class="st1" d="M78.6,142c-0.8,0-1.6,0-2.4-0.1c-9.2-0.5-17.8-3.9-22.9-9L13.1,92.7C8,87.6,5.3,79.3,5.6,70
				c0.3-9.1,3.5-17.5,8.5-22.6l16.3-16.3c0.5-0.5,1.2-0.5,1.7,0c0.5,0.5,0.5,1.2,0,1.7L15.8,49.1C11.1,53.7,8.2,61.6,8,70
				c-0.3,8.6,2.3,16.4,6.9,21l40.2,40.2c4.7,4.7,12.7,7.8,21.3,8.3c8.7,0.5,16.6-1.9,21.1-6.4l16.8-16.8c0.5-0.5,1.2-0.5,1.7,0
				c0.5,0.5,0.5,1.2,0,1.7l-16.8,16.8C94.5,139.5,87.2,142,78.6,142z M130.9,102.2c-0.3,0-0.6-0.1-0.9-0.3c-0.5-0.5-0.5-1.2,0-1.7
				l8.2-8.2c4.5-4.5,7.3-11.9,7.4-19.8c0.1-8.1-2.4-15.4-7.1-20.1L96.4,9.9c-4.6-4.6-12.3-7.4-20.6-7.5c-8.2-0.1-15.8,2.5-20.3,7
				L45,19.9c-0.5,0.5-1.2,0.5-1.7,0c-0.5-0.5-0.5-1.2,0-1.7L53.8,7.7C58.7,2.7,67-0.1,75.8,0c9,0.1,17.1,3.1,22.2,8.2l42.2,42.2
				c5.1,5.1,7.9,13,7.8,21.8c-0.1,8.5-3.2,16.5-8.1,21.5l-8.2,8.2C131.5,102,131.2,102.2,130.9,102.2z"/>
		</g>
	</g>
	
		<linearGradient id="SVGID_4_" gradientUnits="userSpaceOnUse" x1="40.9581" y1="73.2307" x2="111.0878" y2="73.2307" gradientTransform="matrix(1 0 0 -1 0 144)">
		<stop  offset="0" style="stop-color:#8FFF73"/>
		<stop  offset="1" style="stop-color:#8FFFF9"/>
	</linearGradient>
	<path class="st2" d="M109,90c0.2-0.2,0.5-0.5,0.7-0.8c1.2-1.7,1.7-3.7,1.3-5.7l-1.2-4.9c-1-3.9-3.9-6.9-7.5-8.2
		c1.9-1.4,3.2-3.8,3.2-6.4c0-4.4-3.6-7.9-7.9-7.9c-4.4,0-7.9,3.6-7.9,7.9c0,2.2,0.9,4.2,2.4,5.7l-8.6,0c-2.2,0-4,1.8-4,4
		c0,0.6,0.2,1.2,0.4,1.7h-2.7V61.5l3.1-0.6c4.7-0.9,8.2-5.1,8.2-10V39.7c0-2.2-1.8-4-4-4s-4,1.8-4,4v9.6c0,1.9-1.5,3.4-3.4,3.4h-3.5
		c1.5-1.4,2.4-3.4,2.4-5.7c0-4.4-3.6-7.9-7.9-7.9s-7.9,3.6-7.9,7.9c0,2.4,1.1,4.6,2.8,6c-2.3,0.5-4.4,1.7-6,3.4
		c-0.8-0.2-1.6-0.4-2.4-0.4c-4.4,0-7.9,3.6-7.9,7.9c0,2.6,1.3,4.9,3.2,6.4c-3.6,1.3-6.5,4.3-7.5,8.2l-1.3,5c-0.4,2,0.1,4,1.3,5.7
		c0.2,0.3,0.4,0.5,0.7,0.8c-1.2,0.1-2.1,1.1-2.1,2.2v2.3c0,1.2,1,2.3,2.3,2.3h4.5v6.8h-2.3v2.3h11.3v-2.3h-2.3v-6.8h0.9l1.4,5.5
		c0.4,2.1,2.3,3.6,4.4,3.6c0.3,0,0.6,0,0.9-0.1c1.2-0.3,2.2-1,2.9-2c0.7-1,0.9-2.2,0.6-3.5l-2.6-9.9c-0.6-2.6-2.3-4.8-4.5-6h12.9
		v21.5h9V84.3h12.9c-2.3,1.2-4,3.4-4.5,6l-2.6,10c-0.3,1.2,0,2.4,0.6,3.4c0.7,1,1.7,1.7,2.9,2c0.3,0.1,0.6,0.1,0.9,0.1
		c2.1,0,4-1.5,4.4-3.5l1.5-5.5h2.1v6.8h-2.3v2.3h11.3v-2.3h-2.3v-6.8h3.4c1.2,0,2.3-1,2.3-2.3v-2.3C111.1,91.1,110.2,90.1,109,90z
		 M91.9,64c0-3.1,2.5-5.7,5.7-5.7c3.1,0,5.7,2.5,5.7,5.7c0,3.1-2.5,5.7-5.7,5.7C94.4,69.6,91.9,67.1,91.9,64z M83.4,77.6h1.7h9.3
		l1.4,4.5H56.2l1.4-4.5H67h1.7H83.4z M69.2,64.7l-1.1,1.1L67,64.7l0.7-9.7h0.8L69.2,64.7z M62.5,47c0-3.1,2.5-5.7,5.7-5.7
		c3.1,0,5.7,2.5,5.7,5.7c0,3.1-2.5,5.7-5.7,5.7C65,52.7,62.5,50.1,62.5,47z M65.4,55l-0.8,10.6l3.4,3.4l3.4-3.4l-0.8-10.6h6.4
		c3.1,0,5.7-2.5,5.7-5.7v-9.6c0-0.9,0.8-1.7,1.7-1.7c0.9,0,1.7,0.8,1.7,1.7v11.2c0,3.8-2.7,7-6.4,7.8l-4.9,1v15.6h-2.7
		c0.2-0.5,0.4-1.1,0.4-1.7c0-2.2-1.8-4-4-4l-8.6,0c1.5-1.4,2.4-3.4,2.4-5.7c0-2.7-1.3-5-3.4-6.5C60.8,56,63.1,55.1,65.4,55z
		 M48.9,64c0-3.1,2.5-5.7,5.7-5.7c3.1,0,5.7,2.5,5.7,5.7c0,3.1-2.5,5.7-5.7,5.7C51.4,69.6,48.9,67.1,48.9,64z M52.3,103.6H50v-6.8
		h2.3V103.6z M43.2,94.5v-2.3h5.3l5.7,0.1l0.6,2.2H43.2z M60.9,90.9l2.6,9.9c0.1,0.6,0,1.2-0.3,1.7c-0.3,0.5-0.8,0.9-1.4,1
		c-1.2,0.3-2.4-0.5-2.7-1.8l-2.6-9.9c-0.2-1-1.2-1.8-2.2-1.8H50h-1.5c-1.8,0-3.4-0.8-4.3-2.1c-0.8-1.2-1.1-2.6-0.9-3.9l1.2-4.9
		c1.1-4.3,4.9-7.2,9.3-7.2l14.8,0c0.9,0,1.7,0.8,1.7,1.7c0,0.9-0.8,1.7-1.7,1.7H67H56l-3.2,10.2l1.5,0
		C57.5,85.5,60.2,87.7,60.9,90.9z M78.3,103.6h-4.5V84.3h4.5V103.6z M92.9,101.8c-0.3,1.2-1.5,2-2.7,1.7c-0.6-0.1-1.1-0.5-1.4-1
		c-0.3-0.5-0.4-1.1-0.3-1.7l2.6-10c0.7-3.1,3.4-5.3,6.6-5.4l1.5,0l-3.2-10.2h-11h-1.7c-0.9,0-1.7-0.8-1.7-1.7c0-0.9,0.8-1.7,1.7-1.7
		l13,0h1.8c4.4,0,8.2,3,9.3,7.2l1.2,4.9c0.3,1.4-0.1,2.8-0.9,3.9c-0.9,1.3-2.6,2.1-4.3,2.1h-2.6h-3.1c-1.1,0-2,0.8-2.2,1.7
		L92.9,101.8z M103.2,103.6h-2.3v-6.8h2.3V103.6z M108.8,94.5H97.2l0.6-2.3h3.1h2.6h5.3V94.5z"/>
	
		<linearGradient id="SVGID_5_" gradientUnits="userSpaceOnUse" x1="95.253" y1="98.1147" x2="97.5153" y2="98.1147" gradientTransform="matrix(1 0 0 -1 0 144)">
		<stop  offset="0" style="stop-color:#8FFF73"/>
		<stop  offset="1" style="stop-color:#8FFFF9"/>
	</linearGradient>
	<path class="st3" d="M95.3,44.8h2.3V47h-2.3V44.8z"/>
	
		<linearGradient id="SVGID_6_" gradientUnits="userSpaceOnUse" x1="99.7774" y1="98.1147" x2="102.0391" y2="98.1147" gradientTransform="matrix(1 0 0 -1 0 144)">
		<stop  offset="0" style="stop-color:#8FFF73"/>
		<stop  offset="1" style="stop-color:#8FFFF9"/>
	</linearGradient>
	<path class="st4" d="M99.8,44.8h2.3V47h-2.3V44.8z"/>
	
		<linearGradient id="SVGID_7_" gradientUnits="userSpaceOnUse" x1="104.3015" y1="98.1147" x2="106.564" y2="98.1147" gradientTransform="matrix(1 0 0 -1 0 144)">
		<stop  offset="0" style="stop-color:#8FFF73"/>
		<stop  offset="1" style="stop-color:#8FFFF9"/>
	</linearGradient>
	<path class="st5" d="M104.3,44.8h2.3V47h-2.3V44.8z"/>
	
		<linearGradient id="SVGID_8_" gradientUnits="userSpaceOnUse" x1="90.7286" y1="95.9843" x2="111.0878" y2="95.9843" gradientTransform="matrix(1 0 0 -1 0 144)">
		<stop  offset="0" style="stop-color:#8FFF73"/>
		<stop  offset="1" style="stop-color:#8FFFF9"/>
	</linearGradient>
	<path class="st6" d="M107.7,40.2H94.1c-1.9,0-3.4,1.5-3.4,3.4v4.5c0,1.9,1.5,3.4,3.4,3.4h3.4v4.3l7.1-4.3h3.1
		c1.9,0,3.4-1.5,3.4-3.4v-4.5C111.1,41.8,109.6,40.2,107.7,40.2z M108.8,48.1c0,0.6-0.5,1.1-1.1,1.1H104l-4.2,2.5v-2.5h-5.7
		c-0.6,0-1.1-0.5-1.1-1.1v-4.5c0-0.6,0.5-1.1,1.1-1.1h13.6c0.6,0,1.1,0.5,1.1,1.1V48.1z"/>
</g>
</svg>
